# xmcd
#
# Track frame offsets:
#        150
#        18143
#        36123
#        54208
#        72293
#        89993
#        107890
#        126005
#        143848
#        162020
#        180343
#        198150
#        215280
#        233283
#        251458
#
# Disc length: 3591 seconds
#
# Revision: 0
# Processed by: cddbd v1.5.1PL2 Copyright (c) Steve Scherf et al.
# Submitted via: ExactAudioCopy v0.95a5
#
DISCID=bc0e050f
DTITLE=Various Artist - SUPER EUROBEAT VOL 136
DYEAR=2003
DGENRE=Eurodance
TTITLE0=MATT LAND - PAMELA
TTITLE1=SUSY WENDER - LOOK IN YOUR EYES
TTITLE2=KEVIN JOHNSON - PROMISES
TTITLE3=KIM LOREN - WAITING FOR YOUR LOVE
TTITLE4=KING and QUEEN - FLY INTO THE MOONLIGHT
TTITLE5=PROSCILLA - CRASH BOOM! BANG! BANG!
TTITLE6=ACE WARRIOR - FIGHT FOR LOVE TONIGHT
TTITLE7=NANDO - BLACK OR WHITE
TTITLE8=SOPHIE - LOVE DEVOTION and SURRENDER
TTITLE9=MONIQUE - EVERYBODY CAN DANCE
TTITLE10=TOKYO FUTURE - DA BURNING TOKYO
TTITLE11=NORMA SHEFFIELD - SWEET HEART
TTITLE12=TIME FORCE - C'MON and MOVE ON UP
TTITLE13=DELTA QUEENS - TIME TO GO!
TTITLE14=DAVE RODGERS - THE RACE IS OVER
EXTD=
EXTT0=
EXTT1=
EXTT2=
EXTT3=
EXTT4=
EXTT5=
EXTT6=
EXTT7=
EXTT8=
EXTT9=
EXTT10=
EXTT11=
EXTT12=
EXTT13=
EXTT14=
PLAYORDER=
